<?xml version="1.0" encoding="UTF-8" standalone="no"?>
<!-- Created with Inkscape (http://www.inkscape.org/) -->

<svg
   xmlns:dc="http://purl.org/dc/elements/1.1/"
   xmlns:cc="http://creativecommons.org/ns#"
   xmlns:rdf="http://www.w3.org/1999/02/22-rdf-syntax-ns#"
   xmlns:svg="http://www.w3.org/2000/svg"
   xmlns="http://www.w3.org/2000/svg"
   version="1.1"
   width="200"
   height="200"
   id="svg2">
  <defs
     id="defs4" />
  <metadata
     id="metadata7">
    <rdf:RDF>
      <cc:Work
         rdf:about="">
        <dc:format>image/svg+xml</dc:format>
        <dc:type
           rdf:resource="http://purl.org/dc/dcmitype/StillImage" />
        <dc:title></dc:title>
      </cc:Work>
    </rdf:RDF>
  </metadata>
  <g
     transform="translate(0,-852.36218)"
     id="layer1">
    <path
       d="M 100,0 C 44.771525,0 0,44.771525 0,100 0,155.22847 44.771525,200 100,200 155.22847,200 200,155.22847 200,100 200,44.771525 155.22847,0 100,0 z M 50,50 c 5.168269,0 9.76819,2.34639 13.15625,5.59375 3.38806,3.24736 5.88915,7.34464 8.0625,11.8125 4.3467,8.93579 7.565868,19.87874 10.6875,30.59375 0.677784,2.3265 1.358395,4.41378 2.03125,6.6875 0.664284,-2.245 1.330717,-4.39158 2,-6.6875 3.12499,-10.71429 6.375908,-21.65996 10.71875,-30.59375 2.171422,-4.46693 4.64841,-8.565 8.03125,-11.8125 C 108.07035,52.34625 112.67798,50 117.84375,50 c 5.16577,0 9.80465,2.34625 13.1875,5.59375 1.00357,0.96343 2.04589,2.02221 2.90625,3.125 0.88571,-1.14572 1.86768,-2.128 2.90625,-3.125 C 140.2266,52.34625 144.83423,50 150,50 l 0,14.28125 c -1.08421,0 -1.84376,0.1225 -3.34375,1.5625 -1.45771,1.39936 -3.21176,4.16803 -4.90625,7.59375 3.09313,7.63286 5.56711,16.11399 8.03125,24.5625 0.0671,0.23142 0.15445,0.42482 0.21875,0.65625 l 0,39.75 c -1.20442,-1.82293 -2.33318,-3.73364 -3.34375,-5.8125 -4.34284,-8.93379 -7.59376,-19.87946 -10.71875,-30.59375 -0.66964,-2.29593 -1.33572,-4.4425 -2,-6.6875 -0.66429,2.245 -1.36197,4.39157 -2.03125,6.6875 -3.12499,10.71429 -6.34466,21.65996 -10.6875,30.59375 -2.17143,4.46693 -4.67966,8.34625 -8.0625,11.59375 C 109.7734,147.435 105.16577,150 100,150 c -5.165768,0 -9.774618,-2.56421 -13.15625,-5.8125 -1.003211,-0.96364 -2.045681,-2.04986 -2.90625,-3.125 -0.885711,1.11657 -1.867682,2.128 -2.90625,3.125 C 77.648404,147.435 73.009518,150 67.84375,150 62.677981,150 58.069132,147.43579 54.6875,144.1875 52.879649,142.45093 51.384067,140.50025 50,138.40625 l 0,-39.75 c 3.049704,10.47258 5.984368,20.70457 9.375,27.6875 1.73278,3.56865 3.62672,6.15453 5.125,7.59375 1.498281,1.43929 2.259539,1.78125 3.34375,1.78125 1.08421,0 1.875005,-0.34125 3.375,-1.78125 1.457709,-1.39936 3.211755,-3.96115 4.90625,-7.375 C 73.032082,118.92942 70.554956,110.44793 68.09375,102 64.972475,91.28642 61.93981,80.7919 58.46875,73.65625 56.733184,70.0884 54.846245,67.28389 53.34375,65.84375 51.841255,64.40339 51.095853,64.28125 50,64.28125 L 50,50 z m 67.84375,14.28125 c -1.08421,0 -1.84376,0.1225 -3.34375,1.5625 -1.5,1.44 -3.39015,4.24372 -5.125,7.8125 -3.46963,7.13765 -6.46876,17.62946 -9.59375,28.34375 -2.464135,8.4485 -4.938117,16.92964 -8.03125,24.5625 1.691066,3.40721 3.452041,5.97814 4.90625,7.375 1.498281,1.43929 2.25954,1.78125 3.34375,1.78125 1.08421,0 1.84376,-0.34125 3.34375,-1.78125 1.5,-1.44 3.39015,-4.02496 5.125,-7.59375 3.46964,-7.13764 6.50001,-17.62946 9.625,-28.34375 2.46727,-8.45936 4.93269,-17.14103 8.03125,-24.78125 -1.66806,-3.3355 -3.47547,-6.00143 -4.90625,-7.375 -1.5,-1.43964 -2.29079,-1.5625 -3.375,-1.5625 z"
       transform="translate(0,852.36218)"
       id="path2987"
       style="fill:#e08e79;fill-opacity:1;stroke:none" />
    <g
       transform="matrix(0,1,-1,0,641.10708,511.3622)"
       id="g3898" />
  </g>
</svg>
