<?xml version="1.0" encoding="UTF-8" standalone="no"?>
<svg
   xmlns:dc="http://purl.org/dc/elements/1.1/"
   xmlns:cc="http://creativecommons.org/ns#"
   xmlns:rdf="http://www.w3.org/1999/02/22-rdf-syntax-ns#"
   xmlns:svg="http://www.w3.org/2000/svg"
   xmlns="http://www.w3.org/2000/svg"
   xmlns:sodipodi="http://sodipodi.sourceforge.net/DTD/sodipodi-0.dtd"
   xmlns:inkscape="http://www.inkscape.org/namespaces/inkscape"
   height="200"
   id="Layer_1"
   version="1.1"
   viewBox="0 0 200 200"
   width="200"
   x="0px"
   xml:space="preserve"
   y="0px"
   inkscape:version="0.48.2 r9819"
   sodipodi:docname="facebook_white.svg"><metadata
     id="metadata9914"><rdf:RDF><cc:Work
         rdf:about=""><dc:format>image/svg+xml</dc:format><dc:type
           rdf:resource="http://purl.org/dc/dcmitype/StillImage" /></cc:Work></rdf:RDF></metadata><defs
     id="defs9912" /><sodipodi:namedview
     pagecolor="#ffffff"
     bordercolor="#666666"
     borderopacity="1"
     objecttolerance="10"
     gridtolerance="10"
     guidetolerance="10"
     inkscape:pageopacity="0"
     inkscape:pageshadow="2"
     inkscape:window-width="782"
     inkscape:window-height="480"
     id="namedview9910"
     showgrid="false"
     fit-margin-top="0"
     fit-margin-left="0"
     fit-margin-right="0"
     fit-margin-bottom="0"
     inkscape:zoom="1.18"
     inkscape:cx="100"
     inkscape:cy="100"
     inkscape:window-x="0"
     inkscape:window-y="0"
     inkscape:window-maximized="0"
     inkscape:current-layer="Layer_1" /><path
     d="M 85.883333,154.4 H 108.36333 V 99.993333 H 123.36 l 1.98667,-18.746666 H 108.36333 L 108.38667,71.86 c 0,-4.886667 0.46666,-7.51 7.48,-7.51 H 125.24 V 45.6 h -15 c -18.016667,0 -24.356667,9.096667 -24.356667,24.39 v 11.256667 h -11.23 v 18.75 h 11.23 V 154.4 z M 100,200 C 44.773333,200 0,155.22667 0,100 0,44.77 44.773333,0 100,0 c 55.22667,0 100,44.77 100,100 0,55.22667 -44.77333,100 -100,100 z"
     style="fill:#e0e0e0;fill-rule:evenodd;fill-opacity:1"
     id="path9908"
     inkscape:connector-curvature="0" /></svg>