<?xml version="1.0" encoding="UTF-8" standalone="no"?>
<svg
   xmlns:dc="http://purl.org/dc/elements/1.1/"
   xmlns:cc="http://creativecommons.org/ns#"
   xmlns:rdf="http://www.w3.org/1999/02/22-rdf-syntax-ns#"
   xmlns:svg="http://www.w3.org/2000/svg"
   xmlns="http://www.w3.org/2000/svg"
   xmlns:sodipodi="http://sodipodi.sourceforge.net/DTD/sodipodi-0.dtd"
   xmlns:inkscape="http://www.inkscape.org/namespaces/inkscape"
   height="200"
   id="Layer_1"
   version="1.1"
   viewBox="0 0 200 200"
   width="200"
   x="0px"
   xml:space="preserve"
   y="0px"
   inkscape:version="0.48.2 r9819"
   sodipodi:docname="google_creme.svg"><metadata
     id="metadata9307"><rdf:RDF><cc:Work
         rdf:about=""><dc:format>image/svg+xml</dc:format><dc:type
           rdf:resource="http://purl.org/dc/dcmitype/StillImage" /><dc:title></dc:title></cc:Work></rdf:RDF></metadata><defs
     id="defs9305" /><sodipodi:namedview
     pagecolor="#ffffff"
     bordercolor="#666666"
     borderopacity="1"
     objecttolerance="10"
     gridtolerance="10"
     guidetolerance="10"
     inkscape:pageopacity="0"
     inkscape:pageshadow="2"
     inkscape:window-width="1152"
     inkscape:window-height="817"
     id="namedview9303"
     showgrid="false"
     fit-margin-top="0"
     fit-margin-left="0"
     fit-margin-right="0"
     fit-margin-bottom="0"
     inkscape:zoom="1.9966667"
     inkscape:cx="99.499165"
     inkscape:cy="100"
     inkscape:window-x="0"
     inkscape:window-y="0"
     inkscape:window-maximized="0"
     inkscape:current-layer="Layer_1" /><path
     d="m 96.54333,103.34 c 5.36334,-5.36 5.78,-12.81667 5.78,-17.00667 0,-16.83666 -9.96666,-42.916663 -29.32,-42.916663 C 66.97,43.416667 60.43667,46.45 56.67,51.11667 52.73333,56.01 51.56,62.29333 51.56,68.32333 c 0,15.66667 9.04667,41.55 29.15333,41.55 5.78,0 12.06334,-2.85 15.83,-6.53333 z M 0,100 c 0,24.68333 8.943333,47.28 23.763333,64.71667 2.796667,-4.7 7.133334,-9.32334 13.553334,-13.12334 C 51.81,142.71333 71.33,141.53667 81.88333,140.86667 c -3.26666,-4.19 -7.03666,-8.63 -7.03666,-15.91334 0,-3.94 1.17333,-6.28333 2.34666,-9.05 -2.59666,0.25334 -5.11,0.50334 -7.45666,0.50334 -24.713337,0 -38.703337,-18.43 -38.703337,-36.61 0,-10.72334 4.943334,-22.63667 14.91,-31.25667 C 59.26333,37.593333 75.09667,35.723333 87.66333,35.723333 h 48.00334 L 120.75333,44.11 h -14.40666 c 5.35666,4.43 16.50333,13.75667 16.50333,31.49667 0,17.26 -9.80333,25.38333 -19.52,33.08666 -3.1,3.02 -6.53333,6.28667 -6.53333,11.39334 0,5.11 3.43333,7.96333 6.03333,10.05666 l 8.37667,6.53334 c 10.30666,8.54666 19.60333,16.50333 19.60333,32.59 0,10.60666 -4.94667,21.25333 -14.59667,29.42 -5.19,0.85 -10.51,1.29333 -15.93666,1.31 9.79333,-4.29667 14.87,-12.15334 14.87,-21.6 0,-11.89334 -7.62334,-18.17667 -25.38334,-30.82667 -1.84333,-0.17 -3.01666,-0.17 -5.36,-0.17 -2.09333,0 -14.66,0.42333 -24.46,3.68667 -5.11,1.84333 -20.019997,7.45666 -20.019997,24.04333 0,1.80333 0.193334,3.55 0.566667,5.23 C 15.916667,162.15 0,132.93333 0,100 z m 192.43333,-38.22667 0,0 C 193.9,65.31667 195.17,68.97 196.23,72.71 c -1.05667,-3.74 -2.32667,-7.39 -3.79667,-10.93667 l 0,0 0,0 0,0 0,0 0,0 0,0 z M 100,200 C 44.773333,200 0,155.22667 0,100 0,44.77 44.773333,0 100,0 c 41.69,0 77.42333,25.51 92.43333,61.77333 H 172.54667 V 35.726667 H 161.38333 V 61.77333 H 135.33667 V 72.71 h 26.04666 v 26.27333 h 11.16334 V 72.71 h 23.68 C 198.68333,81.38333 200,90.54 200,100 c 0,55.22667 -44.77333,100 -100,100 z"
     style="fill:#e0e0e0;fill-opacity:1;fill-rule:evenodd"
     id="path9301"
     inkscape:connector-curvature="0" /></svg>