<?xml version="1.0" encoding="UTF-8" standalone="no"?>
<!-- Created with Inkscape (http://www.inkscape.org/) -->

<svg
   xmlns:dc="http://purl.org/dc/elements/1.1/"
   xmlns:cc="http://creativecommons.org/ns#"
   xmlns:rdf="http://www.w3.org/1999/02/22-rdf-syntax-ns#"
   xmlns:svg="http://www.w3.org/2000/svg"
   xmlns="http://www.w3.org/2000/svg"
   version="1.1"
   width="300"
   height="300"
   id="svg6805">
<title>Yes, this is an SVG rendered by your browser.</title>
  <metadata
     id="metadata6811">
    <rdf:RDF>
      <cc:Work
         rdf:about="">
        <dc:format>image/svg+xml</dc:format>
        <dc:type
           rdf:resource="http://purl.org/dc/dcmitype/StillImage" />
        <dc:title></dc:title>
      </cc:Work>
    </rdf:RDF>
  </metadata>
  <defs
     id="defs6809" />
  <path
     d="M 150,0 C 90.2981,0 38.737808,34.882612 14.59375,85.375 23.910446,86.0227 34,87.33825 34,88.15625 c 0,0.47853 -11.624166,0.67295 -20.9375,0.53125 -0.865161,1.92892 -1.683742,3.87266 -2.46875,5.84375 0.491094,0.19152 1.025663,0.40178 1.5625,0.71875 1.693668,1 2.200356,1 2.5625,0 0.598766,-1.65339 2.412927,-1.57189 5.90625,0.25 3.398973,1.77269 8.505485,1.96326 10.09375,0.375 0.62303,-0.62303 1.946633,-0.83699 2.90625,-0.46875 1.648293,0.63251 1.620632,0.75648 0,2.375 C 32.141666,99.26266 29.669253,99.505 15.21875,99.5 13.01658,99.49923 10.822622,99.47 8.75,99.4375 3.090448,115.24071 0,132.25044 0,150 c 0,19.75014 3.813406,38.60534 10.75,55.875 0.596618,-1.10367 1.241287,-1.87491 1.78125,-1.875 0.731277,0 2.199675,-1.125 3.28125,-2.5 2.457084,-3.12345 4.303765,-3.13181 11.03125,0 2.942113,1.36963 6.654613,2.5 8.25,2.5 2.416375,0 2.90625,0.41548 2.90625,2.46875 0,2.98251 2.554707,4.52488 6.28125,3.8125 3.291561,-0.62922 4.363313,-2.04294 2.78125,-3.625 -0.872678,-0.87268 -1.338824,-0.80049 -1.96875,0.21875 -0.542727,0.87815 -1.079273,0.962 -1.5,0.28125 -0.355316,-0.57488 -1.536566,-0.86586 -2.625,-0.65625 -3.248102,0.62553 -2.238036,-1.27508 1.0625,-2 1.792043,-0.39359 3.598899,-0.20129 4.40625,0.46875 0.875842,0.72688 1.609992,0.7873 2,0.15625 0.335533,-0.54291 -0.02497,-1.3662 -0.78125,-1.8125 -2.423912,-1.43043 -3.493515,-4.61789 -2.46875,-7.3125 0.914678,-2.40514 0.997784,-2.41908 2.34375,-0.59375 0.769473,1.04353 1.123611,2.3523 0.78125,2.90625 -0.353174,0.57145 -0.123783,0.68608 0.53125,0.28125 0.648028,-0.4005 1.155854,-0.141 1.15625,0.59375 3.89e-4,0.71996 1.152181,1.38725 2.5625,1.46875 3.276173,0.18941 4.285426,1.19826 2.40625,2.40625 -1.293445,0.83147 -1.302405,1.03799 0,1.875 0.814677,0.52355 2.231055,3.11105 3.125,5.75 1.159992,3.42431 2.07712,4.74096 3.25,4.53125 1.005071,-0.1797 1.65625,0.37828 1.65625,1.4375 0,0.95258 1.006392,3.16818 2.21875,4.9375 3.88681,5.67242 13.0655,9.20079 14.25,5.46875 0.74191,-2.33753 3.2134,-3.38712 4.21875,-1.78125 0.41537,0.66348 0.86842,7.90552 1,16.09375 0.15076,9.38205 0.85561,17.68383 1.90625,22.40625 1.61187,7.24504 1.78926,7.5301 5.53125,9 2.12872,0.83618 3.875,1.85373 3.875,2.25 0,0.39628 -1.85105,1.01138 -4.125,1.375 -3.1395,0.50202 -4.6013,0.26581 -6,-1 -1.01309,-0.91683 -1.63097,-2.02332 -1.375,-2.4375 0.87636,-1.41798 -2.06413,-2.87248 -6.34375,-3.125 C 73.2162,269.55226 72.53127,270.25064 71,277.53125 93.943,291.77405 121.00933,300 150,300 c 45.4084,0 86.11827,-20.18495 113.625,-52.0625 -1.26895,-0.32069 -1.80227,-2.16648 -0.75,-3.21875 0.97597,-0.97597 2.4152,-0.31684 2.8125,0.75 8.30809,-10.05507 15.32735,-21.21271 20.8125,-33.21875 -0.076,0.0333 -0.15415,0.0604 -0.1875,0.0937 -1.26567,1.26567 -4.3125,0.62708 -4.3125,-0.90625 0,-0.85746 0.41388,-1.3043 0.90625,-1 0.49236,0.3043 1.12016,-0.067 1.40625,-0.8125 0.23475,-0.61175 1.77453,-1.21558 4.0625,-1.65625 0.71006,-1.69256 1.38216,-3.40156 2.03125,-5.125 -0.5498,-0.0528 -1.11045,-0.0893 -1.65625,-0.0937 -4.03571,-0.0332 -7.08823,-2.30772 -4.90625,-3.65625 0.84254,-0.52072 0.93811,-1.51092 0.3125,-3.1875 -1.04905,-2.81139 0.0984,-6.58196 2.625,-8.625 1.55692,-1.25894 1.5165,-1.34476 -0.53125,-0.78125 -1.59847,0.43987 -2.25,0.20732 -2.25,-0.84375 0,-1.56499 6.52856,-3.22595 10.8125,-2.75 0.64885,0.0721 1.1729,0.011 1.59375,-0.15625 0.62052,-2.7859 1.16182,-5.59558 1.625,-8.4375 -0.10827,-0.0385 -0.22522,-0.0933 -0.34375,-0.125 -1.71741,-0.4598 -1.62078,-0.68201 0.59375,-1.28125 0.78545,-5.12634 1.27867,-10.34155 1.53125,-15.625 C 298.85077,157.10789 297.84862,157 296.84375,157 c -3.6497,0 -3.71891,-1.86872 -0.0937,-2.59375 1.19154,-0.23831 2.39255,-0.97834 3.21875,-1.9375 C 299.98201,151.64729 300,150.82462 300,150 c 0,-0.58459 -0.0246,-1.16699 -0.0312,-1.75 -1.97363,-0.56141 -3.31287,-2.86486 -2.4375,-4.28125 0.2944,-0.47634 1.13859,-0.65758 1.875,-0.375 0.14319,0.0549 0.28908,0.093 0.4375,0.0937 -0.0377,-0.90994 -0.0712,-1.81307 -0.125,-2.71875 -0.95323,-0.0777 -1.91274,-0.47362 -2.21875,-0.96875 -0.31094,-0.50311 0.54648,-0.86692 2.09375,-0.96875 -0.16601,-2.29483 -0.38815,-4.5787 -0.65625,-6.84375 -1.64065,-0.39952 -3.67302,-0.79134 -6.15625,-1.15625 -10.92146,-1.60491 -15.38611,-2.72611 -12.28125,-3.09375 1.1,-0.13025 8.15804,-0.33951 15.6875,-0.46875 0.69938,-0.012 1.41438,-0.0417 2.125,-0.0625 C 287.41609,55.283971 225.16241,0 150,0 z m 25.5625,17.46875 C 176.2641,17.465945 177,17.902828 177,18.5625 177,18.805041 176.29496,19 175.4375,19 c -0.85746,0 -1.28296,-0.472278 -0.9375,-1.03125 0.21405,-0.346343 0.64154,-0.498317 1.0625,-0.5 z m 5.125,41.125 c 1.34015,0.03729 2.9939,0.678896 5.8125,1.9375 1.65,0.736785 3.7875,1.582207 4.75,1.875 1.9446,0.591551 2.25501,3.174647 0.8125,6.96875 -0.52368,1.377363 -1.92669,3.00041 -3.09375,3.625 -1.819,0.973502 -2.18169,0.84599 -2.65625,-0.96875 -0.48481,-1.853911 -1.07736,-2.040841 -4.6875,-1.53125 -3.13035,0.441866 -4.90708,0.100252 -7.375,-1.4375 -1.7875,-1.113785 -3.23625,-2.391915 -3.21875,-2.8125 0.0522,-1.255788 2.30225,-3.618872 5.6875,-6 1.61401,-1.135271 2.6286,-1.693538 3.96875,-1.65625 z m -129.34375,39.625 c 0.271304,0.0212 0.584297,0.07 0.90625,0.15625 1.2375,0.33164 3.067541,0.617 4.0625,0.625 0.994959,0.008 1.527419,0.45 1.1875,1 -0.339919,0.55 -0.932459,0.92616 -1.3125,0.84375 -0.380041,-0.0824 -1.925,-0.33338 -3.4375,-0.5625 C 51.2375,100.05212 50,99.39011 50,98.8125 c 0,-0.45082 0.529839,-0.65738 1.34375,-0.59375 z m 140.9375,7.84375 C 193.4216,106.1327 195,107.07087 195,107.96875 195,108.53601 194.35504,109 193.5625,109 c -1.59263,0 -3.09446,-1.81179 -2.21875,-2.6875 0.20566,-0.20566 0.55738,-0.27341 0.9375,-0.25 z M 44.96875,116 c 1.128679,0 7.023307,5.76058 9.03125,8.8125 2.217185,3.36995 1.860254,4.65601 -1.4375,5.03125 -1.623943,0.18479 -3.423943,0.93933 -4,1.6875 -1.55971,2.02571 -6.114457,-2.15245 -6.90625,-6.34375 C 41.02182,121.82919 43.12501,116 44.96875,116 z m 202.625,7.0625 c 3.17559,-0.0618 6.75739,1.97739 6.21875,4.6875 -0.55484,2.7916 -4.03152,4.33027 -6.71875,2.96875 -3.51797,-1.78243 -4.75982,-4.19281 -3.15625,-6.125 0.8588,-1.03479 2.2128,-1.50317 3.65625,-1.53125 z M 287.5625,142 c 0.24254,0 0.4375,0.45 0.4375,1 0,0.55 -0.48004,1 -1.0625,1 -0.58246,0 -0.77742,-0.45 -0.4375,-1 0.33992,-0.55 0.81996,-1 1.0625,-1 z m 6.03125,43.59375 c -0.18893,0.0161 -0.36915,0.0514 -0.53125,0.0937 -3.30127,0.8633 -1.77129,2.83936 1.90625,2.46875 0.0497,-0.005 0.0767,0.005 0.125,0 0.20394,-0.77779 0.40204,-1.56108 0.59375,-2.34375 -0.76495,-0.16748 -1.49504,-0.26964 -2.09375,-0.21875 z M 294.5,190.375 c -0.38475,0.37998 -0.54785,1.00209 -0.46875,1.625 0.15793,-0.54244 0.3168,-1.08004 0.46875,-1.625 z M 21.28125,201.78125 c -0.824451,0.0105 -1.668511,0.15853 -2.46875,0.4375 -3.432444,1.19655 -5.343362,6.24322 -3.84375,10.1875 0.892165,2.34657 1.173246,3.52946 0.65625,4.3125 0.600153,1.20627 1.212338,2.40619 1.84375,3.59375 2.390636,-0.0807 5.015845,0.65705 7.15625,2.15625 2.445355,1.7128 3.750589,8.10608 3.34375,14.75 3.744279,5.23056 7.786264,10.20713 12.15625,14.90625 0.132974,-1.27792 0.218672,-2.81711 0.25,-4.8125 l 0.125,-7.75 -3,-0.53125 c -3.927334,-0.69617 -4.450997,-3.89142 -1.15625,-7.0625 l 2.4375,-2.375 -3.28125,-4.3125 -3.3125,-4.3125 2.09375,-3.84375 2.09375,-3.8125 -2,-3.40625 c -1.501328,-2.58024 -2.765727,-3.4817 -5.1875,-3.71875 C 27.180886,205.99109 26,205.32693 26,204.40625 c 0,-1.56677 -2.245397,-2.65642 -4.71875,-2.625 z M 50.375,213.375 c -0.652033,0.016 -1.356128,0.0695 -2.09375,0.1875 -3.810675,0.60935 -4.025825,0.86311 -5.125,5.625 -0.631234,2.73466 -1.15625,5.65453 -1.15625,6.5 0,1.61996 1.405364,1.53122 9.34375,-0.53125 4.71167,-1.22413 4.613492,-1.13002 5.3125,-5.4375 0.669027,-4.12273 -1.717017,-6.45554 -6.28125,-6.34375 z m -26.34375,2.875 c 1.056342,0.0423 1.992156,0.91505 1.4375,1.8125 C 25.152319,218.57449 24.485081,219 24,219 c -1.400479,0 -2.149608,-1.80882 -1.03125,-2.5 0.332996,-0.2058 0.710386,-0.26409 1.0625,-0.25 z m 34.59375,7.875 c -2.382593,-0.0919 -2.040402,2.13612 0.875,4.875 1.375,1.29175 2.5,3.31254 2.5,4.5 0,1.18746 0.307738,2.46399 0.6875,2.84375 0.379762,0.37976 1.29991,0.10634 2.03125,-0.625 1.106279,-1.10628 1.067507,-1.91586 -0.25,-4.78125 -2.745027,-5.97005 -3.114913,-6.42305 -5.3125,-6.75 -0.183009,-0.0272 -0.37241,-0.0564 -0.53125,-0.0625 z m 185.625,0.90625 c 0.66208,0.0263 1.63025,0.41733 3,1.125 1.23004,0.63548 2.925,1.46126 3.75,1.84375 3.41153,1.58167 1.61989,12 -2.0625,12 -0.99621,0 -2.08837,-0.9 -2.4375,-2 -0.82082,-2.58613 -2.19798,-2.56288 -3.03125,0.0625 -0.40762,1.28433 -0.0483,2.75446 0.9375,3.84375 2.03165,2.24533 2.0274,4.72202 0,5.5 -0.86998,0.33384 -3.45748,0.50535 -5.75,0.40625 -10.38454,-0.44906 -13.51222,-1.00554 -14.875,-2.625 C 222.04168,243.12028 218.59484,228.46457 219.5,227 c 0.72978,-1.18082 17.89486,-0.81783 20.75,0.4375 0.9625,0.42318 1.75,1.39009 1.75,2.15625 0,0.76615 0.4325,1.40625 0.96875,1.40625 0.55,0 0.71346,-1.30769 0.375,-3 -0.41223,-2.06115 -0.19721,-3.01252 0.90625,-2.96875 z m -144,36.09375 c 0.76252,-0.0278 0.81593,1.06541 0.3125,4.5 -1.17924,8.04517 -3.55697,8.72469 -2.625,0.75 0.31715,-2.71378 1.13977,-4.92354 1.9375,-5.1875 0.13909,-0.046 0.26607,-0.0585 0.375,-0.0625 z m -41.65625,3.3125 c -0.361007,0.15645 -0.59375,0.91148 -0.59375,2 0,1.40746 0.45,2.5625 1,2.5625 0.55,0 1,-0.86996 1,-1.9375 0,-1.06754 -0.45,-2.22258 -1,-2.5625 -0.14179,-0.0876 -0.285914,-0.11465 -0.40625,-0.0625 z"
     id="path7346"
     style="fill:#dfb379;fill-opacity:1" />
  <path
     d="M 150,0 C 96.2692,0 49.146833,28.260643 22.65625,70.71875 c 0.156822,0.789945 0.181296,2.170316 0.0625,3.75 -0.287792,3.82689 -0.129765,4.291363 1.125,3.25 0.805195,-0.668253 1.50953,-1.023028 1.5625,-0.78125 0.05297,0.241779 0.952529,-0.03881 2,-0.625 1.197204,-0.66999 1.672949,-1.666749 1.28125,-2.6875 -1.119901,-2.918417 1.223062,-1.694497 2.875,1.5 1.184524,2.290616 1.898881,2.819869 2.71875,2 C 34.894446,76.511804 36.4225,76 37.6875,76 39.474167,76 40,76.557971 40,78.5 c 0,1.45679 0.572275,2.5 1.375,2.5 0.757656,0 1.948704,0.70996 2.65625,1.5625 0.707546,0.85254 2.227702,1.45307 3.375,1.34375 1.147299,-0.10932 2.76875,0.0707 3.59375,0.40625 0.825,0.33558 3.036717,0.74756 4.90625,0.90625 4.687207,0.39788 6.112823,2.92805 3.875,6.84375 -1.078506,1.88714 -1.513894,4.05553 -1.15625,5.84375 0.729281,3.64672 -0.639662,4.47414 -6.09375,3.65625 -4.027363,-0.60394 -4.344938,-0.89178 -4.71875,-4.09375 -0.220787,-1.8912 0.025,-3.57084 0.5625,-3.75 0.537496,-0.17917 0.690717,-1.06457 0.34375,-1.96875 -0.478977,-1.24819 -1.763247,-1.62359 -5.34375,-1.46875 -6.160361,0.26641 -6.812595,2.2664 -1.46875,4.5 2.561199,1.07053 4.013064,2.28306 3.84375,3.21875 -0.449039,2.48155 -4.692783,2.39798 -7.5,-0.15625 -1.409862,-1.28279 -2.295132,-1.84393 -1.9375,-1.21875 0.357632,0.62518 -0.06177,1.75018 -0.96875,2.5 -1.269377,1.04942 -6.199631,1.375 -21.40625,1.375 -1.960527,0 -3.784744,0.0135 -5.59375,0.0312 -1.892914,5.41892 -3.450384,10.97393 -4.71875,16.65625 1.337453,1.7288 1.750258,3.95692 2.34375,11.3125 0.04438,0.55 0.57695,0.18341 1.15625,-0.8125 0.579304,-0.9959 0.805595,-2.45363 0.5,-3.25 -0.305596,-0.79637 -0.145959,-2.56728 0.375,-3.9375 0.932348,-2.45222 1.125101,-2.5 12.25,-2.5 l 11.3125,0 2.625,3 c 3.518332,4.00956 5.406521,3.80422 6.875,-0.75 0.665041,-2.0625 1.631617,-4.57955 2.15625,-5.59375 0.904825,-1.74917 1.07914,-1.71557 3.4375,0.5 1.367417,1.28462 4.358187,2.78917 6.65625,3.34375 3.595685,0.86772 4.171224,1.34859 4.03125,3.5 -0.873671,13.42832 -0.717423,16.00679 1.25,18.71875 1.103634,1.52129 2.566015,5.86756 3.25,9.65625 0.683984,3.78868 2.091408,8.51368 3.09375,10.5 1.002341,1.98631 2.115487,6.775 2.5,10.625 1.032405,10.33711 2.48402,14.29273 6.375,17.5 3.18702,2.62701 3.59169,3.6487 5.6875,14.15625 2.5284,12.67634 6.11249,22.42298 9.9375,26.96875 1.40385,1.66839 2.5625,3.91416 2.5625,5 0,1.08584 1.514,3.42804 3.375,5.1875 1.86104,1.75946 4.1916,4.48333 5.1875,6.0625 1.75437,2.78181 1.76434,2.91418 -0.0625,4.25 -3.60929,2.63918 -8.5,0.82268 -8.5,-3.15625 0,-2.62271 -0.66196,-2.98357 -2.90625,-1.5625 -0.76768,0.48607 -1.11913,1.61949 -0.78125,2.5 0.33788,0.8805 0.18898,1.59375 -0.34375,1.59375 -2.29006,0 0.79738,19.59906 3.34375,21.21875 3.21934,2.04775 4.39096,0.81349 5.03125,-5.3125 0.73817,-7.06236 1.13494,-7.90625 3.59375,-7.90625 2.86488,0 3.28473,5.07463 1.03125,12.25 -2.43064,7.73951 -3.33437,9.21584 -5.28125,8.46875 -0.8403,-0.32245 -2.09738,0.0822 -2.78125,0.90625 -1.56019,1.87991 -4.84042,3.84516 -8.53125,5.3125 C 104.19697,294.5965 126.4665,300 150,300 c 25.42025,0 49.36439,-6.30926 70.34375,-17.46875 0.0838,-1.01243 0.43292,-1.7073 1.09375,-2.4375 1.95261,-2.15761 1.96981,-4.67749 0.125,-9.90625 -0.78746,-2.2319 -1.42245,-7.43467 -1.40625,-11.5625 0.0162,-4.12783 -0.22161,-7.90526 -0.53125,-8.40625 -0.30963,-0.501 -0.83424,-10.03555 -1.15625,-21.1875 -0.51964,-17.99617 -0.8382,-21.13833 -3.0625,-27.90625 -1.8199,-5.53745 -2.5785,-10.11262 -2.71875,-16.71875 -0.12717,-5.99012 -0.65879,-9.66159 -1.5625,-10.75 -1.81348,-2.18412 -2.77003,-2.08915 -3.40625,0.34375 -0.37574,1.43682 -1.38562,2 -3.53125,2 -1.64265,0 -3.20292,-0.55726 -3.46875,-1.25 -0.26582,-0.69274 -2.46487,-1.81578 -4.90625,-2.46875 -4.93952,-1.32112 -6.8125,-3.9843 -6.8125,-9.75 0,-2.355 0.71018,-3.93378 2.34375,-5.21875 1.28965,-1.01444 3.12473,-3.4613 4.0625,-5.4375 3.41071,-7.18754 10.95735,-13.26196 15.59375,-12.53125 5.00707,0.78912 7.9663,3.62673 8,7.65625 0.0115,1.375 0.51959,4.28809 1.125,6.46875 1.01956,3.67239 1.20335,3.82428 2.46875,2.09375 1.23202,-1.68489 1.399,-1.70349 1.96875,-0.21875 0.44569,1.16144 1.34116,1.45543 3.03125,1.03125 1.4934,-0.37482 2.40625,-0.15853 2.40625,0.5625 0,1.7599 6.17891,4.04148 8.125,3 3.89072,-2.08225 2.90946,-6.66019 -2.84375,-13.21875 -2.7372,-3.12034 -3.15409,-4.11909 -2.28125,-5.75 0.58097,-1.08555 1.68685,-1.96875 2.4375,-1.96875 0.87151,0 1.37,-1.1747 1.375,-3.25 0.004,-1.7875 0.10296,-3.7 0.21875,-4.25 0.61903,-2.9404 -0.0319,-3.60041 -2.09375,-2.15625 -1.62762,1.14003 -2.68475,1.18641 -5,0.3125 -3.57994,-1.35128 -3.92743,-3.12592 -0.4375,-2.25 1.49783,0.37593 3.75735,-0.0191 5.59375,-0.96875 2.97458,-1.53821 3.06152,-1.7356 2.40625,-6.5 -0.75683,-5.503 0.32397,-6.6893 5.0625,-5.5 2.24708,0.56398 2.50672,1.00211 1.9375,3.59375 -0.62589,2.84967 -0.53788,2.96875 2.875,2.96875 1.95177,0 5.41503,0.97177 7.6875,2.15625 3.89324,2.02927 5.75726,2.15885 32.28125,2.46875 4.52389,0.0529 7.47873,0.0711 10.6875,0.0937 -0.83739,-5.14456 -1.93459,-10.20152 -3.28125,-15.15625 -6.88956,-0.45213 -14.01656,-0.87637 -19.75,-1.125 -7.425,-0.32198 -17.29466,-0.95644 -21.9375,-1.40625 -8.8488,-0.85729 -10.48839,-0.6483 -13.25,1.71875 -2.6706,2.28904 -4.24605,0.54635 -2.25,-2.5 1.45391,-2.21895 1.48883,-2.72241 0.25,-3.65625 -0.79041,-0.59582 -3.08843,-2.9474 -5.125,-5.21875 L 229,94.25 l 1.90625,-2.375 1.90625,-2.34375 1.875,2.34375 c 2.11045,2.6063 -2.6528,2.21585 46.3125,3.59375 4.78729,0.13472 4.99141,0.13996 8.875,0.25 C 268.12208,39.708771 213.69796,0 150,0 z m -11.3125,6.15625 c 1.74335,-0.107688 3.21947,0.261994 5,0.96875 2.72957,1.083464 5.21722,1.3012 25.25,2.3125 l 9.4375,0.46875 3.6875,4.0625 c 4.06552,4.447615 5.40655,4.838126 8.09375,2.40625 1.66749,-1.509065 1.97813,-1.509065 4.28125,0 1.36975,0.897489 3.36704,1.625 4.4375,1.625 2.47959,0 7.23741,5.559402 6.46875,7.5625 -0.31873,0.830598 -2.16829,2.164241 -4.09375,2.96875 -4.27552,1.786425 -3.97014,1.811873 -8.25,-0.53125 -3.73708,-2.045963 -7.65504,-2.492877 -9.8125,-1.125 -0.80742,0.511917 -2.74996,0.09995 -4.96875,-1.03125 -4.43682,-2.262024 -6.62683,-2.384421 -5.84375,-0.34375 0.43016,1.120989 -0.17487,1.5 -2.34375,1.5 -2.42266,0 -2.95461,-0.454392 -3.21875,-2.75 L 166.5,21.5 l -9.40625,0 -9.4375,0 -0.96875,-2.9375 c -0.70256,-2.107356 -0.66526,-3.069913 0.15625,-3.34375 C 147.47625,15.007916 148,14.17652 148,13.375 c 0,-1.205223 -1.3406,-1.333307 -7.75,-0.8125 -4.2625,0.346357 -8.7625,0.6158 -10,0.625 -1.65849,0.0123 -2.25,0.599452 -2.25,2.25 C 128,17.768955 125.18501,21 123.15625,21 122.51206,21 122,19.875 122,18.5 c 0,-1.375 -0.46946,-2.5 -1.03125,-2.5 -0.56179,0 -1.52976,1.125 -2.15625,2.5 -1.1958,2.624476 -5.8416,3.623146 -5.8125,1.25 0.0292,-2.382572 1.56549,-3.453331 12.21875,-8.59375 6.93813,-3.347792 10.56317,-4.820519 13.46875,-5 z m 71.6875,14.375 c 0.43373,-0.07373 0.70319,0.257785 1,1.03125 0.33923,0.884021 0.625,1.801234 0.625,2.03125 C 212,23.823767 211.35504,24 210.5625,24 c -2.10752,0 -2.73854,-1.59307 -1.15625,-2.90625 0.3962,-0.328814 0.70851,-0.518263 0.96875,-0.5625 z m -13.65625,0.6875 c -0.17488,0.0032 -0.30383,0.05383 -0.40625,0.15625 -0.40967,0.409667 -0.0903,1.144577 0.71875,1.65625 2.43457,1.539671 3.52613,1.088633 1.71875,-0.71875 -0.69733,-0.697325 -1.50662,-1.103316 -2.03125,-1.09375 z M 85.5625,31 C 85.80504,31 86,31.45 86,32 c 0,0.55 -0.48004,1 -1.0625,1 -0.58246,0 -0.77742,-0.45 -0.4375,-1 0.33992,-0.55 0.81996,-1 1.0625,-1 z M 206.75,33.3125 c 2.07101,-0.03986 4.17575,0.269495 4.875,0.96875 0.39584,0.395834 2.84288,0.71875 5.46875,0.71875 5.75587,0 6.78094,1.164641 3.375,3.84375 -1.51791,1.194018 -2.12664,2.268964 -1.5,2.65625 0.5774,0.356852 0.81644,1.050504 0.5,1.5625 -0.31643,0.511996 -2.35181,0.9375 -4.5,0.9375 -2.88022,0 -4.18073,-0.527569 -4.96875,-2 -0.58774,-1.098203 -2.87134,-2.928713 -5.09375,-4.0625 -3.29375,-1.680346 -3.8349,-2.312144 -2.875,-3.46875 0.6011,-0.724282 2.64774,-1.116392 4.71875,-1.15625 z M 188.0625,35 c 0.58246,0 0.77742,0.45 0.4375,1 -0.33992,0.55 -0.81996,1 -1.0625,1 C 187.19496,37 187,36.55 187,36 c 0,-0.55 0.48004,-1 1.0625,-1 z m 25.28125,10.65625 c 0.76147,-0.12196 1.23853,0.655399 2.4375,2.6875 1.09495,1.855806 1.9375,5.126279 1.9375,7.46875 0,4.636076 -0.59961,4.889754 -6.71875,2.6875 -3.50724,-1.262241 -5.0412,-3.745845 -3.0625,-4.96875 0.58045,-0.35874 1.07645,-1.638709 1.09375,-2.84375 0.0173,-1.205041 1.09661,-2.954339 2.40625,-3.90625 0.87797,-0.638151 1.44937,-1.051824 1.90625,-1.125 z m -34.78125,7.125 c 8.48703,0.03568 10.62925,0.408708 13.75,2.25 2.03319,1.199607 3.6875,2.721672 3.6875,3.40625 0,1.371499 8.50405,8.834943 11.21875,9.84375 C 210.26983,69.415057 214,78.341082 214,84.5 c 0,5.36952 -0.0738,5.53526 -2.125,4.4375 -2.5013,-1.33865 -3.92608,0.12415 -3.125,3.1875 0.27173,1.03911 -0.0109,1.875 -0.625,1.875 -1.9323,0 -1.21949,6.37113 1.6875,15.09375 2.14716,6.44269 2.75491,9.99662 2.59375,15.25 -0.1157,3.77165 -0.59915,7.18297 -1.0625,7.5625 -1.04453,0.85558 -5.96914,-4.07077 -9.40625,-9.40625 -2.54069,-3.94397 -5.77312,-5.97264 -18.4375,-11.5625 -2.75,-1.2138 -6.06333,-3.03541 -7.375,-4.0625 C 174.81333,105.8479 172.88284,105 171.84375,105 170.80467,105 167.72539,103.46849 165,101.59375 162.27461,99.71902 158.2426,97.8736 156.03125,97.5 152.93424,96.97676 152,96.3861 152,94.875 c 0,-2.42479 2.34075,-7.07235 4.4375,-8.8125 1.97628,-1.64012 2.02806,-4.98507 0.0937,-6.4375 -0.95602,-0.717851 -1.538,-3.068847 -1.625,-6.625 -0.19417,-7.934678 0.59516,-10.843624 3.78125,-14.1875 4.60949,-4.837769 8.6349,-6.0785 19.875,-6.03125 z M 119.625,64.0625 c 0.4038,-0.07637 0.73275,-0.01725 0.9375,0.1875 0.36938,0.369326 0.41944,1.370029 0.0937,2.21875 -0.68505,1.785224 -5.03004,2.121358 -4.4375,0.34375 0.40653,-1.219595 2.19485,-2.520897 3.40625,-2.75 z m -95,17.15625 c -0.831647,-0.007 -1.732034,0.0783 -2.65625,0.28125 -2.924819,0.64239 -3.633324,1.52293 -2.3125,2.84375 C 20.022916,84.71042 22.272916,85 24.65625,85 27.750843,85 29,84.58558 29,83.5625 29,82.13921 27.119942,81.23985 24.625,81.21875 z m -12.1875,8.875 c -0.48758,1.1178 -0.945319,2.24322 -1.40625,3.375 1.593879,0.3526 7.034771,-0.35272 7.90625,-1.125 1.150043,-1.01913 -1.276454,-1.81661 -6.5,-2.25 z m 19.34375,0.25 c -1.184339,0.005 -2.588128,0.10225 -3.9375,0.28125 -4.78614,0.6349 -4.87424,0.6954 -3.15625,2.59375 1.286147,1.42123 2.540073,1.79823 4.65625,1.375 C 30.937638,94.27497 33.09375,94 34.125,94 c 2.301878,0 2.489507,-2.54686 0.25,-3.40625 -0.447556,-0.17174 -1.409411,-0.25478 -2.59375,-0.25 z M 246.5625,97.3125 c -1.24736,0.0242 -2.51596,0.24287 -4,0.6875 l -4.03125,1.21875 3.96875,3.375 c 4.43268,3.74965 6.60936,4.132 10.9375,1.875 1.61854,-0.84402 3.63632,-1.21258 4.5,-0.8125 0.86116,0.39892 3.5875,1.22063 6.0625,1.8125 2.475,0.59186 11.93276,1.03925 21,1.03125 3.62919,-0.003 6.34179,0.006 8.5625,-0.0312 -0.64424,-2.12704 -1.32747,-4.22657 -2.0625,-6.3125 -0.17405,-0.0174 -0.32651,-0.0453 -0.5,-0.0625 -4.675,-0.46293 -9.50957,-1.18057 -10.75,-1.59375 -1.35028,-0.44977 -2.83832,-0.26725 -3.6875,0.4375 -1.01652,0.84364 -2.50768,0.91804 -5.25,0.21875 C 265.06677,97.56358 257.84421,97.01301 256,98 c -1.07676,0.57626 -3.1648,0.50578 -5.5625,-0.15625 -1.40742,-0.38861 -2.62764,-0.55542 -3.875,-0.53125 z m -29,35.6875 c 0.24254,0 0.4375,0.45 0.4375,1 0,0.55 -0.48004,1 -1.0625,1 -0.58246,0 -0.77742,-0.45 -0.4375,-1 0.33992,-0.55 0.81996,-1 1.0625,-1 z m 8.75,35.0625 C 225.23105,168.16338 225,170.54108 225,176.09375 l 0,5.9375 2.75,-0.65625 c 1.5125,-0.37248 3.71759,-1.3245 4.90625,-2.09375 1.87046,-1.21048 2.00346,-1.69309 0.96875,-3.6875 -0.65756,-1.26744 -2.59815,-3.72314 -4.3125,-5.4375 -1.40166,-1.40166 -2.35113,-2.15428 -3,-2.09375 z m -176.25,47.96875 c -0.775065,0.0532 -1.599178,0.22881 -2.46875,0.5625 -2.411397,0.92534 -1.89846,3.10857 0.90625,3.8125 1.375,0.34511 2.5,1.08548 2.5,1.625 0,1.72613 1.889328,1.03995 3.03125,-1.09375 1.564955,-2.92415 -0.610135,-5.13669 -3.96875,-4.90625 z m 233.71875,1.875 c -0.21187,0.0561 -0.40772,0.11176 -0.625,0.1875 -2.27446,0.79288 -3.15625,1.716 -3.15625,3.34375 0,1.17009 -0.4403,3.41508 -1,5.125 1.68141,-2.82685 3.28435,-5.71345 4.78125,-8.65625 z M 255.8125,221 c -2.47849,0.0794 -2.8125,0.51678 -2.8125,2.4375 0,1.34912 0.51796,3.59912 1.15625,5 1.31956,2.89612 3.28236,3.51039 2.40625,0.75 -0.37529,-1.18243 0.30159,-2.57759 1.9375,-4 3.5295,-3.06886 3.1213,-4.1875 -1.5,-4.1875 -0.44744,0 -0.83343,-0.0113 -1.1875,0 z m 9.875,15.125 c -0.25165,0.0393 -0.72726,0.64741 -1.6875,1.875 -2.51813,3.21924 -2.48386,3.79923 0.25,4.1875 1.26522,0.17969 2.13565,0.88401 2.46875,2.03125 1.10445,-1.36634 2.16193,-2.75095 3.21875,-4.15625 C 269.8206,239.4487 269.45833,239 269,239 c -0.55,0 -1,0.48004 -1,1.0625 0,0.58246 -0.45,0.77742 -1,0.4375 -0.55,-0.33992 -1.01905,-1.60746 -1.03125,-2.8125 -0.0109,-1.07585 -0.0296,-1.60182 -0.28125,-1.5625 z m -229.25,4.15625 c -1.686457,-0.0177 -2.345444,0.79205 -1.75,2.34375 0.331124,0.86289 -0.0035,1.94491 -0.75,2.40625 1.938635,2.36463 3.954164,4.66549 6.03125,6.90625 0.03871,-0.16492 0.05031,-0.24771 0.09375,-0.4375 0.377673,-1.65 0.74743,-4.65338 0.8125,-6.65625 0.101145,-3.11311 -0.229748,-3.73498 -2.40625,-4.28125 -0.785033,-0.19703 -1.469098,-0.27534 -2.03125,-0.28125 z m 186.5,6.75 c -2.11279,0.35231 -1.18361,5.1573 2.75,17.8125 1.96835,6.33257 2.40756,8.42202 2.03125,13.46875 8.7691,-5.32267 16.93594,-11.51973 24.40625,-18.46875 -5.38539,-0.55938 -7.81758,-2.70417 -6.1875,-5.75 2.28575,-4.27096 0.90929,-5.05965 -8.75,-4.96875 -5.12726,0.0483 -9.8455,-0.40898 -11.125,-1.09375 -1.38717,-0.74239 -2.42074,-1.11744 -3.125,-1 z M 59.125,264.9375 c -0.197522,-0.0415 -0.428235,0.022 -0.65625,0.25 -0.287946,0.28794 -0.190447,1.36503 0.21875,2.40625 0.708207,1.80211 0.774757,1.80283 1.125,0.0625 0.286627,-1.42422 -0.09494,-2.59415 -0.6875,-2.71875 z M 109.0625,268 c 0.58246,0 0.77742,0.45 0.4375,1 -0.33992,0.55 -0.81996,1 -1.0625,1 -0.24254,0 -0.4375,-0.45 -0.4375,-1 0,-0.55 0.48004,-1 1.0625,-1 z"
     id="path7344"
     style="fill:#e08e79;fill-opacity:1" />
  <path
     d="m 150,0 c -37.99069,0 -72.66452,14.123552 -99.09375,37.40625 0.05599,0.03896 0.0945,0.08684 0.15625,0.125 0.576317,0.356184 0.900091,1.398724 0.75,2.3125 -0.15009,0.913775 0.109848,2.246594 0.5625,2.96875 0.502059,0.800982 0.19489,2.015127 -0.78125,3.09375 -1.930034,2.132665 -1.023682,3.39641 1.46875,2.0625 1.063618,-0.56923 2.746908,-0.608775 4.125,-0.09375 1.855233,0.693344 3.071473,0.252099 6.125,-2.15625 3.804853,-3.000927 3.650555,-5.036362 -0.3125,-4 -2.304129,0.602543 -3.509712,-1.393254 -1.96875,-3.25 C 61.780865,37.565523 63.135415,37.251138 64.625,37.625 66.064388,37.986263 67,37.762531 67,37.09375 67,36.484126 66.1,36 65,36 c -1.1,0 -2,-0.443672 -2,-0.96875 0,-1.236874 6.26975,-2.402282 8.71875,-1.625 1.03917,0.329819 2.7726,-0.06491 3.84375,-0.875 1.07115,-0.810087 2.89234,-1.48251 4.0625,-1.5 1.17015,-0.01749 2.69825,-0.740664 3.40625,-1.59375 1.70009,-2.048488 7.62657,-1.574638 7.0625,0.5625 -0.2177,0.825 -0.27428,4.778999 -0.15625,8.78125 0.37069,12.568977 -2.31182,16.68836 -11.25,17.4375 -2.53786,0.212706 -5.4407,1.163377 -6.46875,2.09375 C 71.1907,59.242874 69.8613,60 69.28125,60 68.055071,60 67.019543,63.288207 67,67.28125 c -0.0075,1.534411 -0.811633,4.459411 -1.8125,6.5 -1.100137,2.242981 -1.911093,6.44076 -2.0625,10.59375 -0.137745,3.77826 -0.75889,8.05326 -1.34375,9.5 -0.584861,1.44675 -1.01897,7.56544 -0.96875,13.59375 0.05022,6.02831 -0.272504,12.5764 -0.71875,14.5625 -0.642649,2.86022 -0.405698,4.0931 1.0625,5.90625 1.371847,1.69416 1.84375,3.93561 1.84375,8.65625 0,3.95727 0.759496,8.39245 2,11.65625 1.099722,2.8934 1.999722,6.31042 2,7.59375 3.06e-4,1.4152 0.496031,2.15757 1.25,1.90625 1.3422,-0.4474 3.54463,-13.04675 4.15625,-23.75 0.20926,-3.66214 1.30373,-8.63699 2.5,-11.375 1.52835,-3.49804 2.1472,-7.00052 2.1875,-12.5 0.0308,-4.20214 0.27194,-9.47776 0.5625,-11.75 0.44504,-3.48033 0.83687,-4.05175 2.46875,-3.625 2.52399,0.66004 5.69818,-2.2659 7.59375,-7 C 88.54459,85.6875 89.57093,84 90,84 c 0.42907,0 1.09362,-1.62539 1.46875,-3.625 0.37513,-1.999606 1.53267,-5.270252 2.59375,-7.25 C 95.12358,71.145252 96,68.708746 96,67.71875 c 0,-2.04321 2.73676,-6.649451 4.96875,-8.375 0.90237,-0.697623 4.25481,-1.030373 8.5,-0.84375 4.17201,0.183407 8.7664,-0.259002 11.3125,-1.09375 4.81749,-1.579435 11.82251,-1.880278 12.65625,-0.53125 1.32592,2.145383 5.8761,2.160359 10.65625,0 C 146.79492,55.654225 149,54.364624 149,54.03125 c 0,-0.333375 1.2375,-1.336445 2.75,-2.21875 4.54057,-2.648704 29.61066,-4.456658 35.09375,-2.53125 2.80429,0.984741 3.52848,0.941591 4.5,-0.375 0.63681,-0.863011 3.39722,-1.878915 6.125,-2.25 2.72778,-0.371086 5.32322,-1.041969 5.78125,-1.5 1.40896,-1.408963 -2.01834,-3.362356 -6.84375,-3.90625 -4.17892,-0.471026 -4.53578,-0.726153 -4.125,-2.875 0.58813,-3.076634 -0.22311,-2.982035 -2.875,0.34375 l -2.15625,2.6875 -1.65625,-3.25 C 184.6702,36.370296 182.78616,34.481508 181.4375,33.96875 179.98249,33.415556 179,32.260161 179,31.09375 c 0,-1.081154 -0.40241,-2.219856 -0.90625,-2.53125 -0.98618,-0.609489 -4.52501,0.665963 -7.3125,2.65625 -1.40952,1.006407 -1.95548,0.931188 -3,-0.4375 -0.7023,-0.920251 -2.58182,-1.994729 -4.15625,-2.375 -2.84656,-0.687527 -2.8258,-0.671417 -1.21875,1.78125 0.88883,1.356573 1.3061,2.787654 0.9375,3.15625 -1.25111,1.251108 -3.38981,0.663401 -4.03125,-1.09375 -0.9941,-2.723201 -4.31066,-6.689778 -6.125,-7.34375 -1.17124,-0.42217 -2.41083,0.652824 -4.375,3.75 C 147.29808,31.044254 145.59398,33 145.03125,33 c -0.56272,0 -2.71936,-1.729937 -4.78125,-3.84375 -2.06189,-2.113814 -4.7625,-4.375713 -6,-5.03125 -2.45174,-1.298753 -2.6494,-1.908065 -1.34375,-3.96875 0.70712,-1.116025 1.53869,-1.167807 4.71875,-0.15625 2.13037,0.677659 4.68127,1.66131 5.65625,2.15625 4.03102,2.046307 2.83312,-4.956508 -1.21875,-7.125 C 140.01845,13.937307 134,14.703116 134,16.0625 c 0,0.455445 -1.61728,1.624602 -3.59375,2.5625 -1.97647,0.937898 -4.06944,2.743344 -4.65625,4.03125 -1.08505,2.381406 -4.12719,3.160494 -5.25,1.34375 -1.0175,-1.646342 -6.26707,-1.134721 -10.25,1 -4.27458,2.29104 -6.90072,2.552597 -7.53125,0.75 -0.31863,-0.91092 -0.96204,-0.776914 -2.4375,0.53125 -1.11358,0.987312 -3.32697,1.887312 -4.90625,2 -2.52946,0.180493 -2.83337,-0.0789 -2.53125,-2.28125 0.4231,-3.084332 2.91567,-6 5.125,-6 0.90963,0 2.52613,-0.661241 3.59375,-1.46875 1.06762,-0.807508 3.81996,-1.48251 6.125,-1.5 2.30504,-0.01749 4.42344,-0.428422 4.71875,-0.90625 0.81665,-1.321374 18.5101,-9.797057 23.40625,-11.21875 3.30809,-0.96057 5.05746,-1.005839 7.5,-0.125 1.75206,0.631837 6.3375,1.363631 10.1875,1.625 3.85,0.261368 8.3817,0.773119 10.0625,1.125 2.13952,0.447913 3.42236,0.166305 4.3125,-0.90625 1.0143,-1.222156 1.80548,-1.300473 3.9375,-0.4375 1.4699,0.594966 3.8125,1.03843 5.1875,0.96875 1.81164,-0.09181 3.15112,0.814162 4.875,3.34375 2.39668,3.516824 5.15667,4.401176 8.0625,2.5625 0.97635,-0.617793 2.21299,-0.307332 3.875,1 1.34597,1.058741 3.14535,1.9375 3.96875,1.9375 0.82341,0 2.95959,0.893467 4.75,2 C 205.6081,19.901597 209,19.864281 209,17.90625 209,17.415094 209.65515,17 210.4375,17 c 1.55406,0 3.12741,4.096086 4.15625,10.75 0.53752,3.476213 1.14262,4.385173 3.21875,4.90625 1.40051,0.351505 3.8664,0.147866 5.5,-0.46875 5.21026,-1.966653 6.2816,0.53508 2.09375,4.90625 -2.09221,2.183803 -2.37377,3.081988 -1.53125,4.65625 0.7282,1.36059 0.71314,2.255607 -0.0312,3 -1.85931,1.859306 0.11786,3.25 4.65625,3.25 3.09602,0 4.67191,0.48699 5.34375,1.6875 0.81448,1.455382 1.19273,1.506492 2.59375,0.34375 1.16472,-0.966637 1.9581,-1.041898 2.71875,-0.28125 1.41709,1.417087 0.2021,3.25 -2.15625,3.25 -1.03508,0 -2.16008,0.45 -2.5,1 -0.77438,1.252966 1.51029,1.269907 3.46875,0.03125 0.94336,-0.596638 1.95433,-0.5194 2.84375,0.21875 0.76043,0.631106 3.14454,1.233926 5.28125,1.34375 3.58693,0.184365 3.79212,0.04918 2.8125,-1.78125 -1.31393,-2.455108 -0.40628,-5.251349 1.34375,-4.15625 0.69138,0.432643 4.44922,0.87318 8.375,0.96875 1.4728,0.03585 2.73034,0.08543 3.875,0.15625 C 235.0148,19.646277 194.79617,0 150,0 z M 59.5625,33 c 0.857459,0 1.277419,0.45 0.9375,1 -0.339919,0.55 -1.044959,1 -1.5625,1 C 58.419959,35 58,34.55 58,34 c 0,-0.55 0.705041,-1 1.5625,-1 z m -2.375,4.09375 c 0.602744,0.04846 0.808682,0.41703 0.59375,1.0625 -0.246419,0.740026 -1.238484,1.497474 -2.21875,1.6875 -1.140016,0.220995 -1.630326,-0.139373 -1.34375,-1 0.246419,-0.740026 1.238484,-1.497474 2.21875,-1.6875 0.285004,-0.05525 0.549085,-0.07865 0.75,-0.0625 z m -10.5,4.125 c -0.5548,0.527101 -1.078309,1.089549 -1.625,1.625 3.155049,1.32267 3.687105,1.351101 4.40625,0.1875 0.424444,-0.686765 -1.092285,-1.487772 -2.78125,-1.8125 z M 56.5625,42 C 56.805041,42 57,42.45 57,43 c 0,0.55 -0.480041,1 -1.0625,1 -0.582459,0 -0.777419,-0.45 -0.4375,-1 0.339919,-0.55 0.819959,-1 1.0625,-1 z M 256.625,52.21875 c -0.16542,0.03907 -0.29305,0.105554 -0.40625,0.21875 -0.27465,0.274655 0.0543,1.192959 0.75,2.03125 1.5795,1.903178 3.03125,1.959583 3.03125,0.125 0,-1.243375 -2.21708,-2.648468 -3.375,-2.375 z M 61.46875,54 c -1.680786,0 -3.828147,3.640716 -2.96875,5.03125 0.666836,1.078964 1.863278,1.103266 5.28125,0.125 2.142851,-0.613311 2.17651,-0.784295 0.6875,-2.90625 -0.868374,-1.2375 -2.225538,-2.25 -3,-2.25 z M 47.25,56.09375 C 46.185286,56.081305 45.778492,56.820638 46.46875,57.9375 47.299129,59.281083 48.689425,59.311538 49.5,58 49.84232,57.446116 49.414831,56.714061 48.53125,56.375 48.052588,56.19132 47.604905,56.097898 47.25,56.09375 z m 170.6875,9.1875 c -0.59013,0.0081 -0.95038,0.393103 -1.53125,1.1875 -1.47631,2.018975 -0.7158,8.377945 1.25,10.34375 0.73149,0.731486 1.34375,2.68934 1.34375,4.34375 0,2.82201 0.18552,2.96191 3,2.34375 1.88749,-0.41456 3,-0.2729 3,0.40625 0,0.59371 0.96379,1.09375 2.125,1.09375 1.89763,0 2.03611,-0.3795 1.40625,-3.75 C 227.61685,76.35685 226.3795,75 222.875,75 c -3.38471,0 -3.62696,-0.924947 -0.875,-3.28125 2.75265,-2.356888 2.50925,-3.400833 -1.1875,-5.3125 -1.48175,-0.766244 -2.28487,-1.133055 -2.875,-1.125 z M 90.71875,88.1875 c -0.17688,0.0273 -0.36486,0.11486 -0.5,0.25 -0.39462,0.39463 0.0649,1.13296 1,1.65625 0.94108,0.52666 1.438,1.62184 1.125,2.4375 C 92.03275,93.3417 92.29745,94 92.90625,94 93.5151,94 94,93.15766 94,92.125 94,90.25216 91.95688,87.99604 90.71875,88.1875 z M 221.59375,89 c -1.04284,0 -0.64763,2.57112 0.59375,3.8125 1.31161,1.31161 3.13225,1.55524 4.125,0.5625 C 226.91371,92.77379 222.84295,89 221.59375,89 z m 10.34375,14.8125 c -0.48854,0.0371 -1.09261,0.68788 -1.59375,1.75 -0.94349,1.99961 -0.89191,2.4375 0.28125,2.4375 1.75231,0 2.96932,-2.81217 1.75,-4.03125 -0.12757,-0.12755 -0.27465,-0.16862 -0.4375,-0.15625 z M 95.375,110.53125 c -5.43871,0.2196 -9.22076,2.24354 -12.46875,6.5 -1.32676,1.73872 -3.3089,4.05033 -4.40625,5.125 -1.99302,1.95181 -1.97756,1.93873 0.28125,6.0625 1.61886,2.95545 1.92549,4.36095 1.09375,4.875 -0.63897,0.39491 -0.90038,1.43199 -0.5625,2.3125 0.84792,2.20965 3.36057,2.01319 3.96875,-0.3125 0.27627,-1.05646 1.5388,-2.06537 2.84375,-2.25 1.5239,-0.21561 3.00349,-1.59636 4.125,-3.84375 2.46209,-4.9338 5.36654,-6.76861 11.9375,-7.53125 7.41043,-0.86008 8.67286,-2.30478 5.90625,-6.78125 -1.94714,-3.15055 -2.53673,-3.42563 -8.6875,-4 -1.44734,-0.13516 -2.77616,-0.20693 -4.03125,-0.15625 z m 72.34375,0.5 c -1.05466,0.0384 -2.19657,0.20623 -3.125,0.5625 -0.86682,0.33264 -1.30266,1.05347 -0.96875,1.59375 0.33392,0.54029 1.57457,0.72166 2.75,0.40625 1.17543,-0.3154 2.6875,-0.58575 3.375,-0.59375 0.6875,-0.008 1.25,-0.45 1.25,-1 0,-0.68916 -1.52349,-1.0327 -3.28125,-0.96875 z m 55.0625,4.09375 c -0.61115,0.1124 -0.90638,0.85157 -0.3125,1.8125 0.36808,0.59556 1.12758,0.8148 1.6875,0.46875 0.68303,-0.42212 0.65568,-0.96932 -0.0625,-1.6875 -0.48131,-0.48131 -0.94581,-0.66119 -1.3125,-0.59375 z m -57.71875,13.15625 c -1.21594,-0.0788 -2.35153,0.27782 -4.34375,1 -2.32889,0.84422 -5.56875,1.84732 -7.21875,2.21875 -3.66012,0.82393 -9.13766,6.57379 -10,10.5 -0.52016,2.36829 -0.16952,3.18193 1.9375,4.5625 1.41077,0.92437 2.5625,2.28218 2.5625,3.03125 0,0.74906 1.125,2.09906 2.5,3 1.375,0.90093 2.5,2.26951 2.5,3.03125 0,2.54412 1.56284,1.42057 2.53125,-1.8125 1.09951,-3.6707 4.85723,-5.23731 10.3125,-4.28125 2.31979,0.40656 3.69784,0.15063 4.5,-0.875 1.72981,-2.21172 10.31211,-4.84691 17.65625,-5.40625 7.6453,-0.58229 11.32138,-1.77179 10.75,-3.5 -0.22618,-0.68412 -2.41273,-1.52815 -4.84375,-1.875 -2.43103,-0.34685 -7.10625,-1.79116 -10.40625,-3.21875 -3.3,-1.4276 -6.58946,-2.612 -7.3125,-2.625 -0.72304,-0.0131 -3.55818,-0.98482 -6.28125,-2.15625 -2.32942,-1.00208 -3.62781,-1.51499 -4.84375,-1.59375 z m -44.90625,0.84375 c -0.69549,0.0293 -1.09712,0.42284 -1.65625,1.1875 -0.67749,0.92652 -2.53135,1.6875 -4.125,1.6875 -4.98753,0 -20.60531,5.89518 -25.3125,9.5625 -2.44507,1.90493 -4.91691,3.31484 -5.5,3.125 -0.58308,-0.18984 -1.55196,-1.82794 -2.15625,-3.65625 -0.60429,-1.8283 -1.30619,-2.93211 -1.5625,-2.4375 -0.38312,0.73936 -0.36293,13.02329 0.0312,15.65625 0.21023,1.40427 7.8587,0.77579 9.125,-0.75 0.8625,-1.03925 3.15753,-1.5 7.46875,-1.5 4.95963,0 6.5837,0.40048 8.03125,2 0.99888,1.10375 2.53738,1.89125 3.40625,1.75 0.86887,-0.14126 2.0146,0.7625 2.5625,2 1.0227,2.30986 3.93036,3.03128 5.03125,1.25 1.36349,-2.20618 2.39839,-0.75553 2.6875,3.75 0.26446,4.12156 0.59393,4.75515 2.5,4.78125 1.20819,0.0165 2.53325,0.34576 2.9375,0.75 1.10998,1.10999 2.23672,-1.26734 2.96875,-6.28125 0.36135,-2.475 1.10013,-5.33301 1.625,-6.34375 0.52486,-1.01074 1.17508,-3.02158 1.4375,-4.46875 0.26243,-1.44718 0.80998,-3.08917 1.25,-3.65625 0.44001,-0.56708 0.8669,-2.89006 0.9375,-5.15625 0.16876,-5.41423 -3.14252,-10.33733 -8.25,-12.28125 -1.75325,-0.6673 -2.74201,-0.99803 -3.4375,-0.96875 z m 2.6875,40.9375 c -0.84022,0.18392 -1.84375,1.37412 -1.84375,2.5 0,0.79254 0.4151,1.4375 0.90625,1.4375 1.01369,0 2.38498,-3.05253 1.6875,-3.75 -0.19868,-0.19868 -0.46993,-0.24881 -0.75,-0.1875 z M 150.0625,181 c -1.26098,0 -2.17393,1.57607 -1.375,2.375 1.12619,1.12618 2.3125,0.67141 2.3125,-0.875 0,-0.825 -0.41996,-1.5 -0.9375,-1.5 z m -24.09375,3.125 c -1.71216,-0.0337 -2.36082,0.75019 -3.6875,3.8125 C 121.31288,190.17272 119.84259,192 119,192 c -2.34804,0 -8.78507,4.71622 -9.5,6.96875 -0.34971,1.10191 -0.32237,2.53352 0.0625,3.15625 1.61191,2.60813 15.8949,-1.34516 19.1875,-5.3125 0.6152,-0.74127 1.0395,-3.83232 0.9375,-6.84375 -0.17489,-5.16382 -0.33606,-5.48509 -2.90625,-5.78125 -0.29336,-0.0338 -0.56791,-0.0577 -0.8125,-0.0625 z m -3.53125,22.53125 c -0.68229,-0.0207 -1.5579,0.032 -2.75,0.0937 -11.51218,0.59612 -11.67415,6.15698 -0.375,13.8125 3.20276,2.16997 5.95041,3.29865 7.1875,3 3.9642,-0.957 20.17634,-2.60145 28.5,-2.90625 8.77655,-0.32138 12.29862,-1.5281 18.59375,-6.3125 1.70192,-1.29344 3.57951,-2.3437 4.15625,-2.3437 1.28895,0 2.45693,-2.84878 1.6875,-4.09375 -0.77219,-1.24942 -8.4592,-1.15433 -12.21875,0.15625 -1.69578,0.59116 -3.7967,2.15691 -4.65625,3.46875 -1.02063,1.55768 -2.5145,2.3751 -4.3125,2.375 -1.51424,-1e-4 -4.325,0.26685 -6.25,0.5625 -8.05433,1.23702 -15.88656,1.2804 -21.03125,0.125 -5.16792,-1.16062 -5.48998,-1.42524 -5.96875,-4.65625 -0.37801,-2.55102 -0.51562,-3.21906 -2.5625,-3.28125 z m -13.65625,29.375 c -1.07501,-0.001 -2.42386,1.21206 -3.5,3.46875 -1.6156,3.38794 -1.59371,3.70361 0.65625,8.75 2.88629,6.47358 7.0625,18.53346 7.0625,20.40625 0,0.76479 -1.2375,1.91255 -2.75,2.5625 -1.5125,0.64995 -5.11423,3.3635 -8,6.03125 -4.17021,3.85516 -8.97592,6.74422 -15.0625,9 12.36418,5.71044 25.62544,9.80202 39.53125,11.96875 C 126.41294,296.19471 125.41238,294 124.40625,294 c -1.39336,0 -1.94303,-2.11947 -0.84375,-3.21875 1.00256,-1.00256 4.4375,0.42565 4.4375,1.84375 0,1.72451 1.65537,1.81316 2.28125,0.125 0.33987,-0.91673 0.97451,-0.77625 2.3125,0.5 1.76504,1.68356 1.75884,1.77036 -0.0937,3.125 -1.16183,0.84955 -1.54165,1.40979 -1.3125,2.4375 2.91272,0.36466 5.85033,0.64859 8.8125,0.84375 -0.1776,-0.28987 -0.33634,-0.58046 -0.53125,-0.875 -1.3631,-2.0597 -2.4688,-4.56071 -2.4688,-5.5625 0,-1.00179 -0.38927,-2.25875 -0.875,-2.78125 -1.48308,-1.59535 -2.33952,-10.16757 -1.09375,-10.9375 0.77035,-0.4761 0.59989,-1.2501 -0.53125,-2.5 -1.53515,-1.69632 -1.46052,-1.84699 1.1875,-2.375 6.58841,-1.31373 18.56019,-2.5854 19.40625,-2.0625 1.78262,1.10171 17.48949,-2.78716 22.84375,-5.65625 2.98517,-1.59962 5.77608,-2.90625 6.21875,-2.90625 0.44267,0 2.82784,-1.96303 5.3125,-4.34375 5.06311,-4.85131 5.8731,-7.65625 2.15625,-7.65625 -1.95454,0 -2.53649,-0.65457 -3.09375,-3.625 -0.40709,-2.17001 -0.2332,-4.0793 0.40625,-4.71875 0.58836,-0.58836 1.0625,-1.9625 1.0625,-3.0625 0,-1.55556 -0.25417,-1.71458 -1.1875,-0.78125 -1.57842,1.57842 -6.52461,1.53108 -7.09375,-0.0625 -0.24554,-0.6875 -0.79007,-0.93045 -1.21875,-0.53125 -0.42867,0.39921 -0.18261,1.47719 0.5625,2.375 1.16001,1.39772 1.09853,1.80828 -0.53125,3 C 179.48439,245.35924 176.93742,246 174.875,246 c -2.06242,0 -4.03508,0.45 -4.375,1 -0.94944,1.53622 -3.5,1.19794 -3.5,-0.46875 0,-2.27098 -4.75376,-3.07594 -6.875,-1.15625 -0.98364,0.89019 -2.2669,1.625 -2.84375,1.625 -0.57684,0 -1.6049,0.70989 -2.3125,1.5625 -2.06905,2.49304 1.11519,4.94419 5.96875,4.59375 3.16796,-0.22873 4.13168,0.10449 5.0625,1.84375 1.2866,2.40403 1.3551,2.29072 -1.75,3.90625 -1.2375,0.64385 -2.25,1.7943 -2.25,2.5625 0,2.5421 -5.96297,5.8279 -10.875,6 -5.94371,0.20826 -14.96288,-2.08113 -18,-4.5625 -2.4976,-2.04057 -2.48803,-2.11005 0.4375,-11.71875 0.55858,-1.83464 0.25651,-2.43201 -1.4375,-2.875 -1.20688,-0.31561 -2.125,-1.35904 -2.125,-2.40625 0,-1.57817 -0.73237,-1.81427 -5,-1.65625 -4.10211,0.15189 -5.27126,-0.18323 -6.5,-1.9375 -0.82418,-1.17668 -2.87602,-2.44209 -4.5625,-2.8125 -1.68648,-0.37042 -3.32832,-1.32061 -3.625,-2.09375 -0.35819,-0.93342 -0.88624,-1.37437 -1.53125,-1.375 z M 226.9375,251 c -1.17112,0 -0.32363,10.0827 1.5,18 0.61761,2.68133 0.98025,5.41693 1.125,8.15625 6.60264,-4.14027 12.85994,-8.75667 18.71875,-13.84375 -2.85547,-1.30859 -5.37113,-2.31208 -6.1875,-2.3125 -0.77308,-4.3e-4 -2.88478,-1.125 -4.6875,-2.5 -1.80272,-1.375 -3.75342,-2.5 -4.34375,-2.5 -0.59034,0 -2.05445,-1.125 -3.25,-2.5 -1.19555,-1.375 -2.49287,-2.5 -2.875,-2.5 z m 13.6875,3.34375 c -0.35859,-0.0603 -0.625,0.1569 -0.625,0.59375 0,0.58246 0.45,1.0625 1,1.0625 0.55,0 1,-0.19496 1,-0.4375 0,-0.24254 -0.45,-0.72258 -1,-1.0625 -0.1375,-0.085 -0.25547,-0.13615 -0.375,-0.15625 z"
     id="path7342"
     style="fill:#464646;fill-opacity:1" />
</svg>
