<?xml version="1.0" encoding="UTF-8" standalone="no"?>
<svg
   xmlns:dc="http://purl.org/dc/elements/1.1/"
   xmlns:cc="http://creativecommons.org/ns#"
   xmlns:rdf="http://www.w3.org/1999/02/22-rdf-syntax-ns#"
   xmlns:svg="http://www.w3.org/2000/svg"
   xmlns="http://www.w3.org/2000/svg"
   xmlns:sodipodi="http://sodipodi.sourceforge.net/DTD/sodipodi-0.dtd"
   xmlns:inkscape="http://www.inkscape.org/namespaces/inkscape"
   height="200"
   id="Layer_1"
   version="1.1"
   viewBox="0 0 200 200"
   width="200"
   x="0px"
   xml:space="preserve"
   y="0px"
   inkscape:version="0.48.2 r9819"
   sodipodi:docname="home.svg"><metadata
     id="metadata11033"><rdf:RDF><cc:Work
         rdf:about=""><dc:format>image/svg+xml</dc:format><dc:type
           rdf:resource="http://purl.org/dc/dcmitype/StillImage" /><dc:title></dc:title></cc:Work></rdf:RDF></metadata><defs
     id="defs11031" /><sodipodi:namedview
     pagecolor="#ffffff"
     bordercolor="#666666"
     borderopacity="1"
     objecttolerance="10"
     gridtolerance="10"
     guidetolerance="10"
     inkscape:pageopacity="0"
     inkscape:pageshadow="2"
     inkscape:window-width="1469"
     inkscape:window-height="946"
     id="namedview11029"
     showgrid="false"
     fit-margin-top="0"
     fit-margin-left="0"
     fit-margin-right="0"
     fit-margin-bottom="0"
     inkscape:zoom="3.64"
     inkscape:cx="99.725275"
     inkscape:cy="100"
     inkscape:window-x="0"
     inkscape:window-y="0"
     inkscape:window-maximized="0"
     inkscape:current-layer="Layer_1" /><path
     style="fill:#e0e0e0;fill-opacity:1;stroke:none"
     d="M 100 0 C 44.771524 0 1.5533243e-16 44.771524 0 100 C 1.8947806e-14 155.22848 44.771524 200 100 200 C 155.22848 200 200 155.22848 200 100 C 200 44.771524 155.22848 -1.7608236e-14 100 0 z M 100 49 C 103.04054 49 104.6348 50.886677 106.375 52.53125 L 119.125 65.28125 L 119.125 61.75 C 119.125 58.244128 121.99412 55.375 125.5 55.375 L 131.875 55.375 C 135.38088 55.375 138.25 58.244128 138.25 61.75 L 138.25 84.375 L 147.5 93.625 C 149.48877 95.696647 151 97.208039 151 100 C 151 103.58874 148.24563 106.375 144.625 106.375 L 138.25 106.375 L 138.25 144.625 C 138.25 148.13089 135.38088 151 131.875 151 L 112.75 151 L 112.75 119.125 C 112.75 115.61913 109.88087 112.75 106.375 112.75 L 93.625 112.75 C 90.11913 112.75 87.25 115.61913 87.25 119.125 L 87.25 151 L 68.125 151 C 64.619128 151 61.75 148.13089 61.75 144.625 L 61.75 106.375 L 55.375 106.375 C 51.754388 106.375 49 103.58874 49 100 C 49 97.208039 50.511214 95.696647 52.5 93.625 L 93.625 52.53125 C 95.365182 50.886677 96.959445 49 100 49 z "
     id="path11035" /></svg>