<?xml version="1.0" encoding="UTF-8" standalone="no"?>
<!-- Created with Inkscape (http://www.inkscape.org/) -->

<svg
   xmlns:dc="http://purl.org/dc/elements/1.1/"
   xmlns:cc="http://creativecommons.org/ns#"
   xmlns:rdf="http://www.w3.org/1999/02/22-rdf-syntax-ns#"
   xmlns:svg="http://www.w3.org/2000/svg"
   xmlns="http://www.w3.org/2000/svg"
   xmlns:sodipodi="http://sodipodi.sourceforge.net/DTD/sodipodi-0.dtd"
   xmlns:inkscape="http://www.inkscape.org/namespaces/inkscape"
   width="200"
   height="200"
   id="svg2"
   version="1.1"
   inkscape:version="0.48.2 r9819"
   sodipodi:docname="codemonkey.svg">
  <defs
     id="defs4" />
  <sodipodi:namedview
     id="base"
     pagecolor="#ffffff"
     bordercolor="#666666"
     borderopacity="1.0"
     inkscape:pageopacity="0.0"
     inkscape:pageshadow="2"
     inkscape:zoom="3.92"
     inkscape:cx="99.744898"
     inkscape:cy="100"
     inkscape:document-units="px"
     inkscape:current-layer="layer1"
     showgrid="true"
     inkscape:window-width="1680"
     inkscape:window-height="1002"
     inkscape:window-x="0"
     inkscape:window-y="0"
     inkscape:window-maximized="1"
     inkscape:snap-bbox="true">
    <inkscape:grid
       type="xygrid"
       id="grid2985"
       empspacing="4"
       visible="true"
       enabled="true"
       snapvisiblegridlinesonly="true"
       spacingx="50px"
       spacingy="50px" />
  </sodipodi:namedview>
  <metadata
     id="metadata7">
    <rdf:RDF>
      <cc:Work
         rdf:about="">
        <dc:format>image/svg+xml</dc:format>
        <dc:type
           rdf:resource="http://purl.org/dc/dcmitype/StillImage" />
        <dc:title></dc:title>
      </cc:Work>
    </rdf:RDF>
  </metadata>
  <g
     inkscape:label="Layer 1"
     inkscape:groupmode="layer"
     id="layer1"
     transform="translate(0,-852.36218)">
    <path
       style="fill:#dfb379;stroke:none;stroke-width:1;stroke-linecap:round;stroke-linejoin:round;stroke-miterlimit:4;stroke-opacity:1;stroke-dasharray:none;stroke-dashoffset:0;fill-opacity:1"
       d="M 100 0 C 44.771525 0 1.5533243e-16 44.771525 0 100 C 0 155.22847 44.771525 200 100 200 C 155.22847 200 200 155.22847 200 100 C 200 44.771525 155.22847 -2.8266377e-14 100 0 z M 85.0625 50 L 88 50 L 88 62.4375 C 82.629595 62.437572 79.417793 62.959489 78.34375 64 C 77.306684 65.040652 76.730295 67.076127 76.65625 70.09375 C 76.433999 78.418467 76.151592 83.815152 75.78125 86.3125 C 75.447889 88.809944 74.64002 91.210761 73.34375 93.5 C 72.084467 95.754634 69.70021 97.918871 66.21875 100 C 69.515025 101.87308 71.893494 104.11732 73.375 106.71875 C 74.893492 109.32023 75.803213 113.04678 76.0625 117.9375 L 76.875 133.09375 C 77.208304 134.55057 78.021961 135.64659 79.28125 136.375 C 80.540477 137.13809 83.418946 137.5 87.9375 137.5 L 87.9375 150 L 85.0625 150 C 79.136542 149.99998 74.565946 149.34587 71.34375 148.0625 C 68.121507 146.81379 65.788177 144.75393 64.34375 141.875 C 62.899291 138.99605 62.156236 134.35443 62.15625 127.9375 C 62.156236 120.86155 61.893505 116.35213 61.375 114.375 C 60.856469 112.39791 59.85647 110.56777 58.375 108.9375 C 56.893509 107.27259 54.111105 106.38877 50 106.25 L 50 93.75 C 54.037031 93.715354 57.087954 92.622765 59.125 90.4375 C 61.162024 88.217636 62.156236 83.231613 62.15625 75.53125 C 62.156236 69.669365 62.399291 65.340892 62.84375 62.53125 C 63.325216 59.687065 64.440956 57.314062 66.21875 55.40625 C 67.996508 53.498596 70.310163 52.145048 73.125 51.3125 C 75.939787 50.445432 79.91432 50.000084 85.0625 50 z M 112 50 L 114.9375 50 C 120.86342 50.000084 125.43401 50.654198 128.65625 51.9375 C 131.87845 53.18628 134.21178 55.246134 135.65625 58.125 C 137.10067 61.004019 137.84372 65.645642 137.84375 72.0625 C 137.84372 79.416006 138.10067 84.029815 138.65625 85.9375 C 139.24881 87.845281 140.27428 89.623234 141.71875 91.21875 C 143.2002 92.779666 145.96293 93.611296 150 93.75 L 150 106.25 C 145.96293 106.28471 142.912 107.40512 140.875 109.625 C 138.83793 111.84493 137.84372 116.77533 137.84375 124.40625 C 137.84372 130.30289 137.60067 134.65918 137.15625 137.46875 C 136.71178 140.313 135.6215 142.68601 133.84375 144.59375 C 132.06595 146.50147 129.7523 147.85502 126.9375 148.6875 C 124.12267 149.55464 120.14814 149.99998 115 150 L 112.0625 150 L 112.0625 137.5 C 117.21064 137.5 120.35184 137.00589 121.5 136 C 122.68517 134.9941 123.30091 132.96206 123.375 129.875 C 123.59721 120.99537 123.93054 115.30992 124.375 112.8125 C 124.85647 110.28044 125.78586 107.904 127.15625 105.71875 C 128.56364 103.53356 130.78123 101.63028 133.78125 100 C 130.59604 98.057615 128.38424 96.154337 127.125 94.28125 C 125.86572 92.408243 125.00693 90.372768 124.5625 88.1875 C 124.11804 85.967638 123.78471 81.87231 123.5625 75.90625 C 123.34026 69.905621 123.07753 66.46097 122.78125 65.59375 C 122.48494 64.726667 121.77314 63.99942 120.625 63.375 C 119.51388 62.750722 116.62962 62.437572 112 62.4375 L 112 50 z "
       transform="translate(0,852.36218)"
       id="path2987" />
    <g
       id="g3898"
       transform="matrix(0,1,-1,0,641.10708,511.3622)" />
  </g>
</svg>
