<?xml version="1.0" encoding="UTF-8" standalone="no"?>
<svg
   xmlns:dc="http://purl.org/dc/elements/1.1/"
   xmlns:cc="http://creativecommons.org/ns#"
   xmlns:rdf="http://www.w3.org/1999/02/22-rdf-syntax-ns#"
   xmlns:svg="http://www.w3.org/2000/svg"
   xmlns="http://www.w3.org/2000/svg"
   xmlns:sodipodi="http://sodipodi.sourceforge.net/DTD/sodipodi-0.dtd"
   xmlns:inkscape="http://www.inkscape.org/namespaces/inkscape"
   height="300"
   id="Layer_1"
   version="1.1"
   viewBox="0 0 300 300"
   width="300"
   x="0px"
   xml:space="preserve"
   y="0px"
   inkscape:version="0.48.2 r9819"
   sodipodi:docname="twitter_creme.svg"><metadata
     id="metadata8719"><rdf:RDF><cc:Work
         rdf:about=""><dc:format>image/svg+xml</dc:format><dc:type
           rdf:resource="http://purl.org/dc/dcmitype/StillImage" /><dc:title></dc:title></cc:Work></rdf:RDF></metadata><defs
     id="defs8717" /><sodipodi:namedview
     pagecolor="#ffffff"
     bordercolor="#666666"
     borderopacity="1"
     objecttolerance="10"
     gridtolerance="10"
     guidetolerance="10"
     inkscape:pageopacity="0"
     inkscape:pageshadow="2"
     inkscape:window-width="1384"
     inkscape:window-height="851"
     id="namedview8715"
     showgrid="false"
     fit-margin-top="0"
     fit-margin-left="0"
     fit-margin-right="0"
     fit-margin-bottom="0"
     inkscape:zoom="2.11"
     inkscape:cx="149.52607"
     inkscape:cy="150"
     inkscape:window-x="0"
     inkscape:window-y="0"
     inkscape:window-maximized="0"
     inkscape:current-layer="Layer_1" /><path
     d="m 170.835,91.415 c -13.095,4.765 -21.37,17.055 -20.43,30.505 l 0.315,5.19 -5.24,-0.635 C 126.415,124.04 109.755,115.78 95.61,101.9 l -6.915,-6.885 -1.78,5.085 c -3.77,11.335 -1.36,23.305 6.495,31.355 4.19,4.45 3.245,5.085 -3.98,2.435 -2.515,-0.845 -4.715,-1.48 -4.925,-1.165 -0.73,0.745 1.78,10.38 3.77,14.195 2.725,5.3 8.275,10.485 14.355,13.56 l 5.135,2.435 -6.075,0.105 c -5.865,0 -6.075,0.105 -5.445,2.335 2.095,6.885 10.37,14.195 19.59,17.375 l 6.495,2.22 -5.655,3.39 c -8.38,4.88 -18.23,7.63 -28.08,7.835 -4.72,0.105 -8.595,0.53 -8.595,0.85 0,1.055 12.785,6.985 20.22,9.32 22.315,6.885 48.825,3.915 68.73,-7.84 14.145,-8.37 28.285,-25 34.89,-41.105 3.565,-8.575 7.125,-24.255 7.125,-31.77 0,-4.875 0.315,-5.51 6.18,-11.335 3.46,-3.39 6.705,-7.095 7.335,-8.155 1.05,-2.015 0.94,-2.015 -4.4,-0.215 -8.905,3.18 -10.165,2.755 -5.76,-2.01 3.245,-3.39 7.125,-9.535 7.125,-11.335 0,-0.315 -1.57,0.21 -3.355,1.165 -1.885,1.06 -6.075,2.65 -9.22,3.6 l -5.655,1.805 -5.135,-3.5 c -2.83,-1.905 -6.805,-4.025 -8.905,-4.66 -5.345,-1.48 -13.52,-1.27 -18.34,0.425 z M 150,300 C 67.16,300 0,232.84 0,150 0,67.155 67.16,0 150,0 c 82.84,0 150,67.155 150,150 0,82.84 -67.16,150 -150,150 z"
     style="fill:#7ac8bd;fill-rule:evenodd;fill-opacity:1"
     id="path8713"
     inkscape:connector-curvature="0" /></svg>