<?xml version="1.0" encoding="UTF-8" standalone="no"?>
<svg
   xmlns:dc="http://purl.org/dc/elements/1.1/"
   xmlns:cc="http://creativecommons.org/ns#"
   xmlns:rdf="http://www.w3.org/1999/02/22-rdf-syntax-ns#"
   xmlns:svg="http://www.w3.org/2000/svg"
   xmlns="http://www.w3.org/2000/svg"
   xmlns:sodipodi="http://sodipodi.sourceforge.net/DTD/sodipodi-0.dtd"
   xmlns:inkscape="http://www.inkscape.org/namespaces/inkscape"
   height="200"
   id="Layer_1"
   version="1.1"
   viewBox="0 0 200 200"
   width="200"
   x="0px"
   xml:space="preserve"
   y="0px"
   inkscape:version="0.48.2 r9819"
   sodipodi:docname="twitter_creme.svg"><metadata
     id="metadata8719"><rdf:RDF><cc:Work
         rdf:about=""><dc:format>image/svg+xml</dc:format><dc:type
           rdf:resource="http://purl.org/dc/dcmitype/StillImage" /><dc:title></dc:title></cc:Work></rdf:RDF></metadata><defs
     id="defs8717" /><sodipodi:namedview
     pagecolor="#ffffff"
     bordercolor="#666666"
     borderopacity="1"
     objecttolerance="10"
     gridtolerance="10"
     guidetolerance="10"
     inkscape:pageopacity="0"
     inkscape:pageshadow="2"
     inkscape:window-width="1384"
     inkscape:window-height="851"
     id="namedview8715"
     showgrid="false"
     fit-margin-top="0"
     fit-margin-left="0"
     fit-margin-right="0"
     fit-margin-bottom="0"
     inkscape:zoom="2.11"
     inkscape:cx="99.526066"
     inkscape:cy="100"
     inkscape:window-x="0"
     inkscape:window-y="0"
     inkscape:window-maximized="0"
     inkscape:current-layer="Layer_1" /><path
     d="M 113.89,60.94333 C 105.16,64.12 99.64333,72.31333 100.27,81.28 l 0.21,3.46 -3.49333,-0.42333 C 84.27667,82.69333 73.17,77.18667 63.74,67.93333 l -4.61,-4.59 -1.18667,3.39 C 55.43,74.29 57.03667,82.27 62.27333,87.63667 c 2.79334,2.96666 2.16334,3.39 -2.65333,1.62333 -1.67667,-0.56333 -3.14333,-0.98667 -3.28333,-0.77667 -0.48667,0.49667 1.18666,6.92 2.51333,9.46334 1.81667,3.53333 5.51667,6.99 9.57,9.04 l 3.42333,1.62333 -4.05,0.07 c -3.91,0 -4.05,0.07 -3.63,1.55667 1.39667,4.59 6.91334,9.46333 13.06,11.58333 l 4.33,1.48 -3.77,2.26 c -5.58666,3.25333 -12.15333,5.08667 -18.72,5.22333 -3.14666,0.07 -5.73,0.35334 -5.73,0.56667 0,0.70333 8.52334,4.65667 13.48,6.21333 14.87667,4.59 32.55,2.61 45.82,-5.22666 9.43,-5.58 18.85667,-16.66667 23.26,-27.40334 2.37667,-5.71666 4.75,-16.17 4.75,-21.18 0,-3.25 0.21,-3.67333 4.12,-7.55666 2.30667,-2.26 4.47,-4.73 4.89,-5.43667 0.7,-1.34333 0.62667,-1.34333 -2.93333,-0.14333 -5.93667,2.12 -6.77667,1.83666 -3.84,-1.34 2.16333,-2.26 4.75,-6.35667 4.75,-7.55667 0,-0.21 -1.04667,0.14 -2.23667,0.77667 -1.25666,0.70666 -4.05,1.76666 -6.14666,2.4 l -3.77,1.20333 -3.42334,-2.33333 c -1.88666,-1.27 -4.53666,-2.68334 -5.93666,-3.10667 -3.56334,-0.98667 -9.01334,-0.84667 -12.22667,0.28333 z M 100,200 C 44.773333,200 0,155.22667 0,100 0,44.77 44.773333,0 100,0 c 55.22667,0 100,44.77 100,100 0,55.22667 -44.77333,100 -100,100 z"
     style="fill:#dfb379;fill-opacity:1;fill-rule:evenodd"
     id="path8713"
     inkscape:connector-curvature="0" /></svg>